# xmcd CD database file
#
# Track frame offsets:
#	150
#	32798
#	60305
#	83990
#	99070
#	135224
#	169755
#	190199
#	201125
#	219764
#
# Disc length: 3101 seconds
#
# Revision: 0
# Processed by: cddbd v1.5PL3 Copyright (c) Steve Scherf et al.
# Submitted via: CDex 1.51
#
DISCID=740c1b0a
DTITLE=Velotti - Battisti Jazz Ensemble - Indian Summer
DYEAR=2001
DGENRE=Jazz
TTITLE0=Angelica
TTITLE1=Indian Summer
TTITLE2=Pannonica
TTITLE3=Deep Purple
TTITLE4=Blame It On My Youth
TTITLE5=What Am I Here For
TTITLE6=Skylark
TTITLE7=Three Little Words
TTITLE8=Anema e Core
TTITLE9=Mood Indigo
EXTD=YEAR: 2001
EXTT0=
EXTT1=
EXTT2=
EXTT3=
EXTT4=
EXTT5=
EXTT6=
EXTT7=
EXTT8=
EXTT9=
PLAYORDER=
